<?xml version="1.0" encoding="utf-8"?>
<!-- Generator: Adobe Illustrator 25.3.1, SVG Export Plug-In . SVG Version: 6.00 Build 0)  -->
<svg version="1.0" id="Layer_1" xmlns="http://www.w3.org/2000/svg" xmlns:xlink="http://www.w3.org/1999/xlink" x="0px" y="0px"
	 width="118.32px" height="149.53px" viewBox="0 0 118.32 149.53" style="enable-background:new 0 0 118.32 149.53;"
	 xml:space="preserve">
<path d="M92.17,0H0v149.53h118.32V25.82L92.17,0z M92.21,5.52l18.82,18.58c-8.47,0-17.1,0-18.82,0
	C92.21,22.4,92.21,13.91,92.21,5.52z M114.42,145.63c-3.7,0-106.82,0-110.52,0c0-3.74,0-137.98,0-141.73c2.56,0,52.51,0,84.41,0V28
	h26.11C114.42,67.75,114.42,142.84,114.42,145.63z M23.04,29.28c0.84-0.18,1.67-0.56,2.49-1.13c0.82-0.57,1.49-1.35,2.02-2.34
	c0.53-0.99,0.8-2.22,0.8-3.68c0-1.89-0.46-3.44-1.38-4.63c-0.92-1.19-2.06-1.97-3.42-2.33c-0.89-0.24-2.79-0.36-5.71-0.36h-7.71
	v23.77h4.82v-8.96h3.13C20.23,29.62,21.89,29.51,23.04,29.28z M14.93,25.6v-6.77h2.32c1.73,0,2.88,0.05,3.46,0.16
	c0.78,0.14,1.42,0.49,1.93,1.06c0.51,0.56,0.76,1.28,0.76,2.15c0,0.7-0.18,1.32-0.54,1.85c-0.36,0.53-0.86,0.92-1.5,1.17
	c-0.64,0.25-1.9,0.37-3.8,0.37H14.93z M45.47,38.08c1.41-0.45,2.53-1.09,3.36-1.9c1.1-1.07,1.94-2.47,2.54-4.2
	c0.49-1.42,0.73-3.1,0.73-5.06c0-2.23-0.26-4.1-0.78-5.62c-0.52-1.52-1.27-2.8-2.26-3.85c-0.99-1.05-2.18-1.78-3.57-2.19
	c-1.04-0.3-2.54-0.45-4.51-0.45h-8.75v23.77h9.01C43,38.58,44.41,38.41,45.47,38.08z M37.05,34.56V18.83h2.15
	c1.95,0,3.25,0.08,3.92,0.23c0.89,0.2,1.63,0.57,2.21,1.12c0.58,0.55,1.03,1.32,1.36,2.3c0.32,0.98,0.48,2.39,0.48,4.23
	c0,1.84-0.16,3.28-0.48,4.35c-0.32,1.06-0.74,1.83-1.25,2.29c-0.51,0.46-1.15,0.79-1.93,0.99c-0.59,0.15-1.56,0.23-2.89,0.23H37.05z
	 M60.99,38.58h-4.81V14.81h16.27v4.02H60.99v5.61h9.87v4.02h-9.87V38.58z M89.13,89.51c4.13,0,7.44,1.58,9.94,4.73
	c-3.61,2.55-5.42,5.62-5.42,9.22c0,4.32,2.23,7.64,6.68,9.94c-1.2,3.46-2.94,6.48-5.2,9.05c-2.26,2.57-4.31,3.86-6.16,3.86
	c-0.91,0-2.14-0.29-3.69-0.88l-0.72-0.28l-1.21-0.46c-0.77-0.28-1.7-0.41-2.79-0.41c-1.07,0-2.25,0.23-3.54,0.7l-0.93,0.34
	l-1.16,0.49c-0.89,0.34-1.81,0.52-2.74,0.52c-2.94,0-5.85-2.47-8.72-7.41c-2.87-4.94-4.31-9.94-4.31-15.01
	c0-4.3,1.2-7.78,3.59-10.42c2.39-2.64,5.54-3.97,9.45-3.97c1.46,0,2.84,0.27,4.13,0.8l0.88,0.36l0.93,0.39
	c0.81,0.33,1.46,0.49,1.96,0.49c0.65,0,1.38-0.15,2.17-0.44l1.21-0.46l0.88-0.34C85.81,89.77,87.41,89.51,89.13,89.51z M88.53,78.67
	c0.17-0.02,0.44-0.05,0.8-0.1c0.03,0.55,0.05,0.97,0.05,1.26c0,2.74-0.99,5.13-2.98,7.19c-1.99,2.06-4.31,3.08-6.96,3.08
	c-0.07-0.6-0.1-1.05-0.1-1.34c0-2.31,0.92-4.47,2.77-6.5C83.97,80.22,86.11,79.03,88.53,78.67z M64.46,75.04
	c9.63-1.03,19.4-4.79,21.37-8.24c0.13-0.22,0.36-1.06,0.36-1.06c0.05-0.45-0.29-1.82-0.29-1.82c-0.21-1.37-0.92-2.31-2.05-2.72
	c-3.46-1.27-11.14,2.69-20.07,10.34c-2.91,0.23-5.71,0.25-8.32,0.05c-6.18-0.57-13.48-3.88-20.58-9.31
	c-0.86-1.93-2.29-5.3-3.96-8.73c-1.68-3.45-3.88-7.72-5.72-9.85c-1.13-1.31-4.44-3.96-6.34-1.01c-0.79,1.23-0.99,3.71-0.72,4.48
	C19.89,52.2,25.42,59,32.26,64.54c2.16,6.64,3.81,14.04,4.88,22.01c2.99,22.17,2.51,34.94-1.41,38.08
	c-0.96-1.59-1.16-5.72-0.45-10.61c0.4-2.79,1.66-8.99,1.66-8.99c-4.97,9.39-5.18,16.41-3.86,19.57c0.16,0.39,0.81,1.18,1.62,1.44
	c0.87,0.27,1.92,0,1.92,0c0.61-0.08,1.18-0.29,1.7-0.64c3.61-2.44,4.88-11.55,3.79-27.14C47.47,90.94,55.8,82.28,64.46,75.04z
	 M84,63.63c0.46,0.09,0.78,0.3,0.98,0.64l0.18,0.31l-0.03,0.05c-1.32,2.27-7.72,4.82-15.29,6.16C76.48,65.84,81.7,63.18,84,63.63z
	 M20.78,45.8c-0.14-0.51,1.27-6.22,5.82,4.88c0.9,1.88,2.07,4.33,3.3,7.38C25.14,53.58,21.63,48.9,20.78,45.8z M41.97,96.4
	c-0.24-3.04-0.57-6.32-0.97-9.78c-0.83-7.12-2.1-13.2-3.86-18.52c5.97,3.93,12.02,6.34,17.57,6.98c1.54,0.18,3.19,0.26,4.92,0.25
	C52.89,81.72,46.69,89.12,41.97,96.4z"/>
</svg>
