<?xml version="1.0" encoding="utf-8"?>
<!-- Generator: Adobe Illustrator 16.0.0, SVG Export Plug-In . SVG Version: 6.00 Build 0)  -->
<!DOCTYPE svg PUBLIC "-//W3C//DTD SVG 1.1 Basic//EN" "http://www.w3.org/Graphics/SVG/1.1/DTD/svg11-basic.dtd">
<svg version="1.1" baseProfile="basic" id="Layer_1"
	 xmlns="http://www.w3.org/2000/svg" xmlns:xlink="http://www.w3.org/1999/xlink" x="0px" y="0px" width="118.32px"
	 height="149.53px" viewBox="0 0 118.32 149.53" xml:space="preserve">
<path d="M92.17,0H0v149.53h118.32V25.82L92.17,0z M92.21,5.52l18.82,18.58c-8.47,0-17.1,0-18.82,0
	C92.21,22.4,92.21,13.91,92.21,5.52z M114.42,145.63c0,0-106.82,0-110.52,0c0-3.74,0-137.98,0-141.73c2.56,0,52.51,0,84.41,0V28
	h26.11V145.63z M25.53,28.15c0.82-0.57,1.49-1.35,2.02-2.34c2-3.74,0.38-9.3-4-10.64c-1.33-0.41-13.42-0.22-13.42-0.22v23.63h4.82
	v-8.96C14.95,29.62,23.53,29.89,25.53,28.15z M14.93,25.6v-6.77c0,0,6.75-0.57,7.85,1.22c0.45,0.64,0.72,1.37,0.77,2.1
	c0.05,0.77-0.15,1.54-0.62,2.19C21.73,25.99,14.93,25.59,14.93,25.6L14.93,25.6z M45.47,38.08c1.41-0.45,2.53-1.09,3.36-1.9
	c1.1-1.07,1.94-2.47,2.54-4.2c0.99-3.56,0.98-7.12-0.05-10.68c-0.52-1.52-1.27-2.8-2.26-3.85c-0.99-1.05-2.18-1.78-3.57-2.19
	c-1.04-0.3-2.54-0.45-4.51-0.45h-8.75v23.77h9.01C43,38.58,44.41,38.41,45.47,38.08C46.88,37.63,44.41,38.41,45.47,38.08z
	 M37.13,18.76c1.95,0,4.2-0.04,5.99,0.29s2.93,1.26,3.57,3.42c0.64,2.18,0.88,6.25-0.17,9.08c-1.38,3.73-9.47,2.94-9.47,2.94
	L37.13,18.76z M60.99,38.58h-4.81V14.81h16.27v4.02H60.99v5.61h9.87v4.02h-9.87V38.58z M92.46,89.89c2.59,0.75,4.82,2.09,6.61,4.35
	c-7.62,6.63-7.21,13.02,1.26,19.16c-1.2,3.46-2.94,6.48-5.2,9.05c-1.71,2.31-3.59,3.6-5.65,3.82c-2.24,0.24-6.13-1.58-6.13-1.58
	c-2.39-0.74-3.92-0.75-6.33,0.29c0,0-3.44,1.41-5.54,1.33c-3.26-0.12-5.93-2.7-8.01-7.39c-2.75-4.74-6.21-12.2-4.43-19.22
	c1.29-5.11,5.49-10.13,11.5-10.45c1.78-0.09,3.72,0.22,5.8,1.07c0,0,3.26,1.25,4,1.24c0.65-0.01,1.29-0.16,1.95-0.44
	c0,0,3.3-1.18,4.18-1.34C88.21,89.47,90.53,89.34,92.46,89.89z M88.53,78.67c0.17-0.02,0.44-0.05,0.8-0.1
	c0.31,5.67-3.59,11.53-9.89,11.53c-0.42-2.83,0.47-5.44,2.67-7.84C83.97,80.22,86.11,79.03,88.53,78.67
	C88.7,78.65,86.11,79.03,88.53,78.67z M64.03,75.44c0,0,18-2.12,21.8-8.64c0.13-0.22,0.36-1.06,0.36-1.06
	c0.05-0.45-0.29-1.82-0.29-1.82c-0.21-1.37-0.92-2.31-2.05-2.72c-3.46-1.27-11.14,2.69-20.07,10.34c-2.91,0.23-5.71,0.25-8.32,0.05
	c-6.18-0.57-13.48-3.88-20.58-9.31c-0.86-1.93-2.29-5.3-3.96-8.73c-1.68-3.45-3.88-7.72-5.72-9.85c-1.13-1.31-4.44-3.96-6.34-1.01
	c-0.79,1.23-0.99,3.71-0.72,4.48C19.89,52.2,25.42,59,32.26,64.54c2.16,6.64,3.81,14.04,4.88,22.01
	c2.99,22.17,2.51,34.94-1.41,38.08c-0.96-1.59-1.16-5.72-0.45-10.61c0.4-2.79,1.66-8.99,1.66-8.99c-4.97,9.39-5.18,16.41-3.86,19.57
	c0.16,0.39,0.81,1.18,1.62,1.44c0.87,0.27,1.92,0,1.92,0c0.61-0.08,1.18-0.29,1.7-0.64c3.61-2.44,4.88-11.55,3.79-27.14
	C47.47,90.94,64.03,75.44,64.03,75.44z M84.98,64.27c0.18,0.68-1.32,1.87-3.45,3.18s-11.7,3.34-11.7,3.34s5.91-4.15,10.42-6.05
	C82.42,63.83,84.8,63.59,84.98,64.27z M20.78,45.8c-0.14-0.51,1.27-6.22,5.82,4.88c0.9,1.88,2.07,4.33,3.3,7.38
	C25.14,53.58,21.63,48.9,20.78,45.8C20.64,45.29,21.63,48.9,20.78,45.8z M41.97,96.4c-0.24-3.04-0.57-6.32-0.97-9.78
	c-0.83-7.12-2.1-13.2-3.86-18.52c5.97,3.93,12.02,6.34,17.57,6.98c1.54,0.18,3.19,0.26,4.92,0.25
	C52.89,81.72,46.69,89.12,41.97,96.4"/>
</svg>
